<?xml version="1.0" encoding="UTF-8"?>
<svg id="Layer_2" data-name="Layer 2" xmlns="http://www.w3.org/2000/svg" viewBox="0 0 164.02 240.04">
  <defs>
    <style>
      .cls-1 {
        stroke: #fff;
      }

      .cls-1, .cls-2 {
        stroke-miterlimit: 10;
      }

      .cls-2 {
        fill: none;
        stroke: #000;
        stroke-width: 5px;
      }
    </style>
  </defs>
  <g id="Layer_1-2" data-name="Layer 1">
    <g>
      <path class="cls-2" d="M156.33,42.5H7.69c-3.24,0-5.69-2.94-5.1-6.13l3.08-16.63c.46-2.46,2.6-4.24,5.1-4.24h0c2.86,0,5.19-2.32,5.19-5.19v-2.63c0-2.86,2.32-5.19,5.19-5.19h118.63c2.86,0,5.19,2.32,5.19,5.19v2.63c0,2.86,2.32,5.19,5.19,5.19h3.42c2.54,0,4.7,1.83,5.12,4.33l2.77,16.63c.53,3.16-1.91,6.04-5.12,6.04Z"/>
      <path class="cls-2" d="M146.18,42.53l-5.18,185.28c-.15,5.38-4.56,9.67-9.94,9.67l-98.68.06c-5.39,0-9.8-4.29-9.95-9.67l-5.21-186.41"/>
    </g>
    <g>
      <path d="M39.18,185.63l3.74,5.19-5.16.52-3.43-5.03-2.22.23.54,5.33-4.9.5-1.47-14.45,10.39-1.06c2.32-.24,4.96.9,5.28,4.02.22,2.2-1.02,4.01-2.77,4.75ZM31.71,182.72l4.85-.49c.38-.04.68-.41.64-.81-.05-.48-.41-.68-.79-.64l-4.85.49.15,1.46Z"/>
      <path d="M48.21,178.09l.46,1.34,8.41-2.87,1.26,3.68-8.41,2.87.47,1.36,8.41-2.87,1.26,3.68-13.06,4.46-4.69-13.75,13.06-4.46,1.26,3.68-8.41,2.87Z"/>
      <path d="M59.81,177.42c-1.84-3.7-.41-8.19,3.39-10.09,3.42-1.7,7.24-.87,9.33,2.14l-4.33,2.13c-.97-.75-2.08-.79-3.03-.31-1.5.75-2.12,2.37-1.33,3.96.74,1.48,2.41,2.2,4.07,1.38.92-.46,1.46-1.37,1.27-2.19l-2.07,1.01-.76-1.53,6.82-3.37.31.73c1.47,3.59,0,7.73-3.58,9.51-3.8,1.9-8.27.31-10.1-3.36Z"/>
      <path d="M74.76,169.52l-3.24-6.27,4.37-2.26,3.4,6.59c.97,1.88,2.46,2.35,3.97,1.57,1.58-.82,1.92-2.24.95-4.11l-3.4-6.59,4.37-2.26,3.24,6.27c2.6,5.03.62,8.35-3.37,10.41-3.92,2.03-7.69,1.68-10.29-3.35Z"/>
      <path d="M103.89,159.75l1.49,3.59-11.85,4.93-5.58-13.4,4.54-1.89,4.08,9.81,7.31-3.04Z"/>
      <path d="M115.51,158.86l-5.07,1.29-.05,1.75-5.35,1.36,1.12-15.26,7.3-1.86,8.28,12.87-5.35,1.36-.88-1.51ZM113.51,155.36l-2.62-4.56-.23.06-.12,5.26,2.98-.76Z"/>
      <path d="M133.75,152.72l3.55,5.32-5.17.35-3.25-5.15-2.23.15.36,5.34-4.91.33-.97-14.48,10.41-.7c2.32-.16,4.93,1.06,5.14,4.2.15,2.2-1.15,3.97-2.94,4.64ZM126.39,149.56l4.86-.33c.38-.03.7-.38.67-.79-.03-.48-.38-.7-.77-.67l-4.86.33.1,1.46Z"/>
    </g>
    <g>
      <path class="cls-1" d="M59.82,102.84c12.9-.73,26.91,13.24,25.88,26.22-.06.77-.82,4.04-1.38,4.46-.87.65-4.2.4-5.28.14-12.58-2.95-12.08-22.22-23.71-26.4l-3.72-1.08c2.19-2.12,5.19-3.17,8.21-3.34Z"/>
      <path class="cls-1" d="M81.07,136.9c-4.73,4.16-11.95,3.21-17.32.78-9.23-4.18-19.13-16.54-15.41-27.16.15-.43.49-1.55.97-1.55.8,0,2.84.55,3.67.8,6.58,2.06,8.41,8.55,11.36,14.04,3.48,6.46,8.62,13.14,16.72,13.08Z"/>
    </g>
    <g>
      <path class="cls-1" d="M119.09,114.45c.73,12.9-13.24,26.91-26.22,25.88-.77-.06-4.04-.82-4.46-1.38-.65-.87-.4-4.2-.14-5.28,2.95-12.58,22.22-12.08,26.4-23.71l1.08-3.72c2.12,2.19,3.17,5.19,3.34,8.21Z"/>
      <path class="cls-1" d="M85.03,135.7c-4.16-4.73-3.21-11.95-.78-17.32,4.18-9.23,16.54-19.13,27.16-15.41.43.15,1.55.49,1.55.97,0,.8-.55,2.84-.8,3.67-2.06,6.58-8.55,8.41-14.04,11.36-6.46,3.48-13.14,8.62-13.08,16.72Z"/>
    </g>
  </g>
</svg>