<?xml version="1.0" encoding="UTF-8"?>
<svg id="Layer_2" data-name="Layer 2" xmlns="http://www.w3.org/2000/svg" viewBox="0 0 164.02 240.04">
  <defs>
    <style>
      .cls-1 {
        fill: none;
        stroke: #000;
        stroke-miterlimit: 10;
        stroke-width: 5px;
      }
    </style>
  </defs>
  <g id="Layer_1-2" data-name="Layer 1">
    <g>
      <path class="cls-1" d="M156.33,42.5H7.69c-3.24,0-5.69-2.94-5.1-6.13l3.08-16.63c.46-2.46,2.6-4.24,5.1-4.24h0c2.86,0,5.19-2.32,5.19-5.19v-2.63c0-2.86,2.32-5.19,5.19-5.19h118.63c2.86,0,5.19,2.32,5.19,5.19v2.63c0,2.86,2.32,5.19,5.19,5.19h3.42c2.54,0,4.7,1.83,5.12,4.33l2.77,16.63c.53,3.16-1.91,6.04-5.12,6.04Z"/>
      <path class="cls-1" d="M146.18,42.53l-5.18,185.28c-.15,5.38-4.56,9.67-9.94,9.67l-98.68.06c-5.39,0-9.8-4.29-9.95-9.67l-5.21-186.41"/>
    </g>
    <g>
      <path d="M56.19,176.01c1.78,6.67-2.97,11.81-7.23,12.95l-12.09,3.22-5.4-20.29,12.32-3.28c4.99-1.33,10.75,1.2,12.41,7.41ZM49.34,177.8c-.87-3.28-3.29-4.06-6.42-3.23l-3.25.86,2.55,9.57,3.48-.93c2.84-.76,4.45-3.23,3.64-6.28Z"/>
      <path d="M62.79,169.2l.8,1.58,9.91-5,2.19,4.34-9.91,5,.81,1.61,9.91-5,2.19,4.34-15.4,7.77-8.18-16.2,15.4-7.77,2.19,4.34-9.91,5Z"/>
      <path d="M76.53,166.71c-2.33-4.61-.47-10.25,4.16-12.59,2.3-1.16,4.87-1.28,7.16-.53l-1.92,5.71c-.81-.26-1.69-.22-2.52.2-1.66.84-2.31,2.81-1.48,4.45.84,1.66,2.81,2.31,4.48,1.47.83-.42,1.4-1.15,1.66-1.98l5.79,1.88c-.74,2.33-2.37,4.36-4.7,5.54-4.63,2.34-10.28.49-12.62-4.15Z"/>
      <path d="M107.18,160.68l-6.16,2.19.14,2.18-6.5,2.31-.36-19.13,8.88-3.15,11.79,15.08-6.5,2.31-1.27-1.78ZM104.28,156.55l-3.79-5.37-.28.1.45,6.56,3.62-1.29Z"/>
      <path d="M119.77,146.24l.23,1.76,11.01-1.44.63,4.82-11.01,1.44.86,6.61-6.1.8-2.35-18,17.11-2.24.63,4.82-11.01,1.44Z"/>
    </g>
    <g>
      <path d="M72.82,102.84c12.9-.73,26.91,13.24,25.88,26.22-.06.77-.82,4.04-1.38,4.46-.87.65-4.2.4-5.28.14-12.58-2.95-12.08-22.22-23.71-26.4l-3.72-1.08c2.19-2.12,5.19-3.17,8.21-3.34Z"/>
      <path d="M94.07,136.9c-4.73,4.16-11.95,3.21-17.32.78-9.23-4.18-19.13-16.54-15.41-27.16.15-.43.49-1.55.97-1.55.8,0,2.84.55,3.67.8,6.58,2.06,8.41,8.55,11.36,14.04,3.48,6.46,8.62,13.14,16.72,13.08Z"/>
    </g>
  </g>
</svg>