<?xml version="1.0" encoding="UTF-8"?>
<svg id="Layer_2" data-name="Layer 2" xmlns="http://www.w3.org/2000/svg" viewBox="0 0 171.02 247.04">
  <defs>
    <style>
      .cls-1 {
        fill: none;
        stroke: #000;
        stroke-miterlimit: 10;
        stroke-width: 12px;
      }
    </style>
  </defs>
  <g id="Layer_1-2" data-name="Layer 1">
    <g>
      <path class="cls-1" d="M159.83,46H11.19c-3.24,0-5.69-2.94-5.1-6.13l3.08-16.63c.46-2.46,2.6-4.24,5.1-4.24h0c2.86,0,5.19-2.32,5.19-5.19v-2.63c0-2.86,2.32-5.19,5.19-5.19h118.63c2.86,0,5.19,2.32,5.19,5.19v2.63c0,2.86,2.32,5.19,5.19,5.19h3.42c2.54,0,4.7,1.83,5.12,4.33l2.77,16.63c.53,3.16-1.91,6.04-5.12,6.04Z"/>
      <path class="cls-1" d="M149.68,46.03l-5.18,185.28c-.15,5.38-4.56,9.67-9.94,9.67l-98.68.06c-5.39,0-9.8-4.29-9.95-9.67l-5.21-186.41"/>
    </g>
    <path class="cls-1" d="M23.45,120c6.75,4.64,18,10.71,31.47,9,20.36-2.58,28.94-20.79,53.36-33,8.43-4.22,21.71-9.2,39.68-9"/>
    <path class="cls-1" d="M23.82,184.52c6.75,4.64,18,10.71,31.47,9,20.36-2.58,28.94-20.79,53.36-33,8.43-4.22,21.71-9.2,39.68-9"/>
  </g>
</svg>