<?xml version="1.0" encoding="UTF-8"?>
<svg id="Layer_2" data-name="Layer 2" xmlns="http://www.w3.org/2000/svg" viewBox="0 0 164.02 240.04">
  <defs>
    <style>
      .cls-1 {
        fill: #754c24;
      }
    </style>
  </defs>
  <g id="Layer_1-2" data-name="Layer 1">
    <path d="M163.92,36.05l-2.77-16.63c-.63-3.72-3.82-6.42-7.59-6.42h-3.42c-1.48,0-2.68-1.21-2.68-2.69v-2.63c0-4.23-3.45-7.68-7.69-7.68H21.14c-4.23,0-7.68,3.45-7.68,7.68v2.63c0,.72-.28,1.39-.79,1.9s-1.18.79-1.9.79c-3.7,0-6.88,2.64-7.56,6.28L.13,35.91c-.41,2.26.19,4.56,1.65,6.32,1.47,1.76,3.62,2.77,5.91,2.77h7.13l5.11,182.93c.19,6.79,5.65,12.11,12.44,12.11h.01l98.68-.06c6.79-.01,12.25-5.32,12.44-12.11l5.11-182.87h7.73c2.26,0,4.4-.99,5.86-2.72,1.47-1.73,2.09-4,1.72-6.23ZM138.51,227.73c-.12,4.06-3.39,7.24-7.45,7.25l-98.68.06h-.01c-4.06,0-7.33-3.19-7.45-7.25l-.49-17.63c12.48-12.46,25.35-19.2,38.29-20.03,8.52-.55,15.11,1.46,22.09,3.59,7.82,2.39,15.92,4.86,26.6,3.33,10.02-1.44,19.53-6,28.33-13.55l-1.23,44.23ZM139.94,176.54c-9.05,8.83-18.88,14.07-29.24,15.56-9.58,1.37-16.8-.83-24.44-3.16-7.09-2.17-14.43-4.4-23.86-3.8-13,.83-25.82,6.98-38.16,18.28l-4.42-158.42h123.79l-3.67,131.54ZM158.39,39.05c-.52.61-1.25.95-2.05.95H7.69c-.8,0-1.55-.35-2.07-.97-.51-.62-.72-1.41-.57-2.21l3.08-16.62c.24-1.27,1.35-2.2,2.64-2.2,2.05,0,3.99-.8,5.44-2.25,1.45-1.45,2.25-3.39,2.25-5.44v-2.63c0-1.48,1.2-2.68,2.68-2.68h118.63c1.48,0,2.69,1.2,2.69,2.68v2.63c0,4.24,3.45,7.69,7.68,7.69h3.42c1.32,0,2.44.94,2.65,2.24l2.77,16.63c.14.79-.08,1.57-.59,2.18Z"/>
    <path class="cls-1" d="M139.74,183.5l-1.23,44.23c-.12,4.06-3.39,7.24-7.45,7.25l-98.68.06h-.01c-4.06,0-7.33-3.19-7.45-7.25l-.49-17.63c12.48-12.46,25.35-19.2,38.29-20.03,8.52-.55,15.11,1.46,22.09,3.59,7.82,2.39,15.92,4.86,26.6,3.33,10.02-1.44,19.53-6,28.33-13.55Z"/>
  </g>
</svg>