<?xml version="1.0" encoding="UTF-8"?>
<svg id="Layer_2" data-name="Layer 2" xmlns="http://www.w3.org/2000/svg" viewBox="0 0 164.02 240.04">
  <defs>
    <style>
      .cls-1 {
        fill: #603813;
      }

      .cls-2 {
        fill: #42210b;
      }
    </style>
  </defs>
  <g id="Layer_1-2" data-name="Layer 1">
    <path d="M163.92,36.05l-2.77-16.63c-.62-3.72-3.81-6.42-7.59-6.42h-3.42c-1.48,0-2.68-1.21-2.68-2.69v-2.63c0-4.23-3.45-7.68-7.69-7.68H21.14c-4.23,0-7.68,3.45-7.68,7.68v2.63c0,1.48-1.21,2.69-2.69,2.69-3.7,0-6.88,2.64-7.56,6.28L.13,35.91c-.41,2.25.19,4.56,1.65,6.32,1.47,1.76,3.62,2.77,5.91,2.77h7.13l5.11,182.93c.19,6.79,5.65,12.11,12.44,12.11h.01l98.68-.06c6.79-.01,12.25-5.32,12.44-12.11l5.11-182.87h7.73c2.26,0,4.4-.99,5.86-2.72,1.46-1.73,2.09-4,1.72-6.23ZM138.51,227.73c-.12,4.06-3.39,7.24-7.45,7.25l-98.68.06h-.01c-4.06,0-7.33-3.19-7.45-7.25l-.49-17.65c12.4-12.56,25.2-19.37,38.05-20.2,8.47-.55,15.01,1.47,21.94,3.62,7.79,2.41,15.84,4.9,26.47,3.36,10.24-1.49,19.93-6.29,28.88-14.28l-1.26,45.09ZM139.96,175.81l-.13-.12c-9.15,9.27-19.13,14.75-29.65,16.28-9.52,1.38-16.69-.84-24.28-3.19-7.06-2.18-14.36-4.44-23.74-3.83-12.93.84-25.66,7.04-37.92,18.41l-2.02-72.31c9.16,7.96,19.08,12.75,29.54,14.23,10.88,1.54,19.12-.95,27.09-3.35,7.12-2.15,13.85-4.18,22.55-3.63,13.19.84,26.32,7.64,39.04,20.19l-.48,17.32ZM140.63,151.78c-12.59-11.41-25.66-17.63-38.92-18.47-9.6-.6-17.07,1.65-24.3,3.83-7.8,2.35-15.17,4.58-24.95,3.19-10.8-1.53-21.04-7.01-30.43-16.28l-2.21-79.05h123.79l-2.98,106.78ZM158.39,39.05c-.52.61-1.25.95-2.05.95H7.69c-.8,0-1.55-.36-2.06-.97-.51-.62-.72-1.42-.58-2.21l3.08-16.63c.24-1.27,1.35-2.19,2.64-2.19,4.24,0,7.69-3.45,7.69-7.69v-2.63c0-1.48,1.2-2.68,2.68-2.68h118.63c1.48,0,2.69,1.2,2.69,2.68v2.63c0,4.24,3.45,7.69,7.68,7.69h3.42c1.32,0,2.44.94,2.65,2.24l2.78,16.63c.13.79-.09,1.56-.6,2.18Z"/>
    <path class="cls-2" d="M140.44,158.49l-.48,17.32-.13-.12c-9.15,9.27-19.13,14.75-29.65,16.28-9.52,1.38-16.69-.84-24.28-3.19-7.06-2.18-14.36-4.44-23.74-3.83-12.93.84-25.66,7.04-37.92,18.41l-2.02-72.31c9.16,7.96,19.08,12.75,29.54,14.23,10.88,1.54,19.12-.95,27.09-3.35,7.12-2.15,13.85-4.18,22.55-3.63,13.19.84,26.32,7.64,39.04,20.19Z"/>
    <path class="cls-1" d="M139.77,182.64l-1.26,45.09c-.12,4.06-3.39,7.24-7.45,7.25l-98.68.06h-.01c-4.06,0-7.33-3.19-7.45-7.25l-.49-17.65c12.4-12.56,25.2-19.37,38.05-20.2,8.47-.55,15.01,1.47,21.94,3.62,7.79,2.41,15.84,4.9,26.47,3.36,10.24-1.49,19.93-6.29,28.88-14.28Z"/>
  </g>
</svg>