<?xml version="1.0" encoding="UTF-8"?>
<svg id="Layer_2" data-name="Layer 2" xmlns="http://www.w3.org/2000/svg" viewBox="0 0 164.02 240.04">
  <defs>
    <style>
      .cls-1 {
        fill: none;
        stroke: #000;
        stroke-miterlimit: 10;
        stroke-width: 5px;
      }
    </style>
  </defs>
  <g id="Layer_1-2" data-name="Layer 1">
    <g>
      <path class="cls-1" d="M156.33,42.5H7.69c-3.24,0-5.69-2.94-5.1-6.13l3.08-16.63c.46-2.46,2.6-4.24,5.1-4.24h0c2.86,0,5.19-2.32,5.19-5.19v-2.63c0-2.86,2.32-5.19,5.19-5.19h118.63c2.86,0,5.19,2.32,5.19,5.19v2.63c0,2.86,2.32,5.19,5.19,5.19h3.42c2.54,0,4.7,1.83,5.12,4.33l2.77,16.63c.53,3.16-1.91,6.04-5.12,6.04Z"/>
      <path class="cls-1" d="M146.18,42.53l-5.18,185.28c-.15,5.38-4.56,9.67-9.94,9.67l-98.68.06c-5.39,0-9.8-4.29-9.95-9.67l-5.21-186.41"/>
    </g>
    <path class="cls-1" d="M19.95,116.5c6.75,4.64,18,10.71,31.47,9,20.36-2.58,28.94-20.79,53.36-33,8.43-4.22,21.71-9.2,39.68-9"/>
    <path class="cls-1" d="M20.32,181.02c6.75,4.64,18,10.71,31.47,9,20.36-2.58,28.94-20.79,53.36-33,8.43-4.22,21.71-9.2,39.68-9"/>
    <g>
      <path d="M37.68,166.73l17.4-2.02c1.48-.17,2.12-.92,1.99-2.02-.12-1.05-.91-1.63-2.44-1.46l-7.92.92c-5.58.65-10.55-2.64-11.33-9.37-.9-7.73,4.07-11.15,9.41-11.77l19.74-2.29,1.02,8.82-17.02,1.97c-1.29.15-2.14.73-2,1.92.14,1.24,1.11,1.66,2.4,1.51l7.44-.86c6.39-.74,11.07,2.54,11.85,9.26.73,6.34-3.54,11.19-9.74,11.9l-19.93,2.31-.88-8.84Z"/>
      <path d="M70.88,152.65c-5.31-6.32-4.49-15.79,1.86-21.13,6.32-5.31,15.79-4.49,21.1,1.83,5.34,6.36,4.52,15.82-1.8,21.14-6.36,5.34-15.82,4.52-21.17-1.83ZM86.39,139.55c-1.88-2.24-5.2-2.53-7.44-.64-2.28,1.91-2.56,5.23-.68,7.47,1.91,2.28,5.23,2.57,7.51.65,2.24-1.88,2.53-5.2.61-7.48Z"/>
      <path d="M105.31,131.03l-20.64-10.47,10.81-5.2,10.03,5.35.3-.15,1.91-11.09,10.77-5.18-4.32,22.47,4.62,9.6-8.87,4.26-4.62-9.6Z"/>
    </g>
  </g>
</svg>