<?xml version="1.0" encoding="UTF-8"?>
<svg id="Layer_2" data-name="Layer 2" xmlns="http://www.w3.org/2000/svg" viewBox="0 0 164.02 240.04">
  <g id="Layer_1-2" data-name="Layer 1">
    <g>
      <path d="M35.61,163.67c-1.12-8.18,4.62-15.75,12.84-16.88,8.18-1.12,15.75,4.62,16.87,12.8,1.13,8.23-4.61,15.8-12.79,16.92-8.23,1.13-15.8-4.61-16.93-12.84ZM55.72,160.86c-.4-2.9-3.05-4.91-5.95-4.51-2.95.4-4.96,3.05-4.56,5.95.4,2.95,3.05,4.96,6,4.55,2.9-.4,4.91-3.05,4.51-6Z"/>
      <path d="M90.99,148.99l-8.38,6.27,1.24,3.27-8.84,6.62-9.64-29.06,12.07-9.03,25.17,17.44-8.84,6.62-2.78-2.12ZM84.6,144.06l-8.34-6.41-.38.29,3.8,9.81,4.92-3.68Z"/>
      <path d="M100.94,122.66l-9.05,3.48-2.79-7.26,27.28-10.48,2.79,7.26-9.05,3.48,7.62,19.85-9.18,3.53-7.62-19.85Z"/>
    </g>
    <path d="M163.91,36.05l-2.77-16.63c-.62-3.72-3.81-6.42-7.58-6.42h-3.42c-1.48,0-2.69-1.21-2.69-2.69v-2.63c0-4.24-3.45-7.69-7.69-7.69H21.14c-4.24,0-7.69,3.45-7.69,7.69v2.63c0,1.48-1.21,2.69-2.69,2.69-3.7,0-6.88,2.64-7.56,6.29L.13,35.91c-.42,2.25.18,4.55,1.65,6.31,1.46,1.76,3.62,2.77,5.91,2.77h7.12l5.11,182.93c.19,6.79,5.66,12.1,12.45,12.1h0l98.68-.06c6.79,0,12.25-5.32,12.44-12.1l5.11-182.88h7.72c2.26,0,4.4-.99,5.86-2.72,1.46-1.73,2.09-4,1.72-6.23ZM140.8,145.57c-12.97.42-25.34,3.5-36.77,9.21-10.78,5.39-18.56,11.93-25.43,17.71-9.09,7.64-16.26,13.67-27.12,15.05-9.08,1.15-18.46-1.32-27.89-7.35l-1.66-59.44c8.28,5.02,16.59,7.54,24.79,7.54,1.68,0,3.35-.11,5.01-.32,12.32-1.56,20.38-8.34,29.71-16.18,6.66-5.6,14.2-11.94,24.45-17.06,11.32-5.66,23.62-8.6,36.56-8.73l-1.66,59.57ZM138.5,227.74c-.11,4.06-3.38,7.24-7.44,7.24l-98.68.06h0c-4.06,0-7.34-3.18-7.45-7.24l-1.16-41.67c7.8,4.45,15.61,6.69,23.34,6.69,1.68,0,3.35-.11,5.01-.32,12.32-1.56,20.38-8.34,29.71-16.18,6.66-5.6,14.2-11.94,24.45-17.06,10.69-5.35,22.23-8.26,34.39-8.68l-2.16,77.16ZM142.6,81.01c-13.76.12-26.88,3.22-38.94,9.26-10.78,5.39-18.56,11.93-25.43,17.71-9.09,7.64-16.26,13.67-27.12,15.05-9.55,1.21-19.42-1.59-29.34-8.32l-1.95-69.7h123.79l-1.01,36.01ZM158.38,39.05c-.52.61-1.25.95-2.05.95H7.69c-.8,0-1.55-.35-2.07-.97-.51-.62-.72-1.42-.58-2.21l3.08-16.63c.24-1.27,1.35-2.2,2.64-2.2,4.24,0,7.69-3.45,7.69-7.69v-2.63c0-1.48,1.21-2.69,2.69-2.69h118.63c1.48,0,2.69,1.21,2.69,2.69v2.63c0,4.24,3.45,7.69,7.69,7.69h3.42c1.32,0,2.43.94,2.65,2.24l2.77,16.63c.13.79-.08,1.56-.6,2.18Z"/>
  </g>
</svg>