<?xml version="1.0" encoding="UTF-8"?>
<svg id="Layer_2" data-name="Layer 2" xmlns="http://www.w3.org/2000/svg" viewBox="0 0 164.02 240.04">
  <defs>
    <style>
      .cls-1 {
        fill: none;
        stroke: #000;
        stroke-miterlimit: 10;
        stroke-width: 5px;
      }
    </style>
  </defs>
  <g id="Layer_1-2" data-name="Layer 1">
    <g>
      <path class="cls-1" d="M156.33,42.5H7.69c-3.24,0-5.69-2.94-5.1-6.13l3.08-16.63c.46-2.46,2.6-4.24,5.1-4.24h0c2.86,0,5.19-2.32,5.19-5.19v-2.63c0-2.86,2.32-5.19,5.19-5.19h118.63c2.86,0,5.19,2.32,5.19,5.19v2.63c0,2.86,2.32,5.19,5.19,5.19h3.42c2.54,0,4.7,1.83,5.12,4.33l2.77,16.63c.53,3.16-1.91,6.04-5.12,6.04Z"/>
      <path class="cls-1" d="M146.18,42.53l-5.18,185.28c-.15,5.38-4.56,9.67-9.94,9.67l-98.68.06c-5.39,0-9.8-4.29-9.95-9.67l-5.21-186.41"/>
    </g>
    <path class="cls-1" d="M19.95,116.5c6.75,4.64,18,10.71,31.47,9,20.36-2.58,28.94-20.79,53.36-33,8.43-4.22,21.71-9.2,39.68-9"/>
    <path class="cls-1" d="M20.32,181.02c6.75,4.64,18,10.71,31.47,9,20.36-2.58,28.94-20.79,53.36-33,8.43-4.22,21.71-9.2,39.68-9"/>
    <g>
      <path d="M27.18,148.07l7.3-1.83,5.26,10.62.23-.06,2.75-6.91.29-.07,5.69,4.79.23-.06-.37-11.84,7.3-1.83.33,21.56-6.23,1.56-4.67-4.55-.12.03-1.91,6.2-6.23,1.56-9.88-19.17Z"/>
      <path d="M74.64,132.95l8.34,16.13-5.46,2.82-3.06-5.92-7.54,3.9,3.06,5.92-5.46,2.82-8.34-16.13,5.46-2.82,3.04,5.89,7.54-3.9-3.04-5.89,5.46-2.82Z"/>
      <path d="M80.83,139.65c-2.2-4.67-.18-10.26,4.51-12.47,4.67-2.2,10.26-.18,12.45,4.48,2.21,4.7.2,10.28-4.47,12.48-4.7,2.21-10.28.2-12.49-4.5ZM92.3,134.22c-.78-1.66-2.73-2.36-4.39-1.58-1.68.79-2.39,2.75-1.61,4.4.79,1.68,2.75,2.39,4.43,1.6,1.66-.78,2.36-2.73,1.57-4.42Z"/>
      <path d="M117.1,130.19l1.37,4.66-15.4,4.51-5.11-17.42,5.9-1.73,3.74,12.76,9.5-2.78Z"/>
      <path d="M124.43,120.88l.15,1.76,11.06-.95.42,4.84-11.06.95.15,1.79,11.06-.95.42,4.84-17.19,1.48-1.56-18.08,17.19-1.48.42,4.84-11.06.95Z"/>
    </g>
  </g>
</svg>