<?xml version="1.0" encoding="UTF-8"?>
<svg id="Layer_2" data-name="Layer 2" xmlns="http://www.w3.org/2000/svg" viewBox="0 0 83.97 245.6">
  <defs>
    <style>
      .cls-1 {
        fill: #ae9f80;
      }
    </style>
  </defs>
  <g id="Layer_1-2" data-name="Layer 1">
    <path d="M70.72,102.05c-4.56-.01-8.29-3.72-8.29-8.27v-40.2c0-7.33-5.94-13.27-13.26-13.27h-1.75c-1.32,0-2.38-1.08-2.37-2.4l.29-28.48c.01-1.23,1.02-2.22,2.25-2.21l13.58.14h.07c1.95,0,3.54-1.59,3.54-3.54.02-1.97-1.57-3.59-3.54-3.61l-20.1-.21h-.04c-1.23,0-2.37.62-3.06,1.72-.36.57-.51,1.26-.52,1.94l-.34,34.3c0,1.3-1.07,2.35-2.37,2.35-7.33,0-13.27,5.94-13.27,13.27v40.2c0,4.55-3.73,8.26-8.28,8.27-7.31,0-13.26,5.95-13.26,13.27v117.01c0,7.33,5.94,13.27,13.27,13.27h57.43c7.33,0,13.27-5.94,13.27-13.27v-117.01c0-7.32-5.94-13.26-13.25-13.27ZM78.97,232.33c0,4.57-3.7,8.27-8.27,8.27H13.27c-4.57,0-8.27-3.7-8.27-8.27v-28.73h73.97v28.73ZM78.97,198.6H5v-44h73.97v44ZM78.97,149.6H5v-34.28c0-4.56,3.73-8.27,8.29-8.27,7.31-.01,13.25-5.96,13.25-13.27v-40.2c0-4.57,3.7-8.27,8.27-8.27h14.36c4.56,0,8.26,3.7,8.26,8.27v40.57c0,7.29,6.04,12.84,13.34,12.9,4.53.03,8.2,3.73,8.2,8.27v34.28Z"/>
    <rect class="cls-1" x="5" y="154.6" width="73.97" height="44"/>
  </g>
</svg>